<svg width="166" height="30" viewBox="0 0 166 30" fill="none" xmlns="http://www.w3.org/2000/svg">
<path d="M63.0117 29.5201V8.36984H67.4166C67.642 8.84454 67.8174 9.3414 67.94 9.85241C68.2889 10.8992 68.4645 12.0767 68.4667 13.385V13.6905C68.9025 11.8586 69.7454 10.4267 70.9953 9.39487C72.2453 8.36304 73.7426 7.84691 75.4872 7.84647C79.1212 7.84647 81.0837 9.88159 81.3746 13.9518C81.8688 12.0045 82.7846 10.5 84.1219 9.43832C85.4592 8.37664 87.0146 7.84603 88.7881 7.84647C90.7631 7.84647 92.3186 8.47144 93.4544 9.7214C94.5903 10.9714 95.1573 12.832 95.1556 15.3034V29.5234H89.617V15.5667C89.617 14.3172 89.3916 13.4232 88.9409 12.8847C88.4901 12.3462 87.7124 12.0771 86.6077 12.0776C85.1252 12.0776 83.9696 12.6009 83.141 13.6477C82.3123 14.6944 81.8835 16.1772 81.8546 18.096V29.5201H76.316V15.5634C76.316 14.3139 76.0906 13.4199 75.6399 12.8814C75.1892 12.3429 74.4114 12.0738 73.3068 12.0743C71.8532 12.0743 70.7048 12.5977 69.8617 13.6444C69.0186 14.6912 68.5825 16.1739 68.5536 18.0928V29.5201H63.0117Z" fill="#101010"/>
<path d="M108.425 30C105.43 30 102.915 29.0478 100.881 27.1435C98.8461 25.2391 97.8276 22.4263 97.8254 18.705V18.6181C97.8254 15.3031 98.8066 12.6793 100.769 10.7464C102.731 8.81353 105.282 7.84798 108.422 7.84973C111.562 7.84973 114.121 8.80914 116.097 10.728C118.074 12.6468 119.062 15.2634 119.06 18.5779V18.6648C119.06 22.4155 118.042 25.2429 116.007 27.1468C113.972 29.0506 111.444 30.0017 108.425 30ZM108.425 26.3791C111.768 26.3791 113.439 24.0243 113.44 19.3146V17.7458C113.44 15.7708 112.989 14.2445 112.088 13.1671C111.187 12.0896 109.966 11.5518 108.425 11.5535C106.883 11.5535 105.669 12.0914 104.783 13.1671C103.897 14.2428 103.454 15.769 103.453 17.7458V19.3159C103.451 24.0256 105.108 26.3805 108.425 26.3805V26.3791Z" fill="#101010"/>
<path d="M121.854 29.5201V8.36981H126.265C126.492 8.84438 126.668 9.34125 126.792 9.85238C127.141 10.8991 127.315 12.0767 127.315 13.385V13.8208C127.722 11.9612 128.58 10.5004 129.888 9.43829C131.196 8.37618 132.81 7.84556 134.729 7.84644C136.879 7.84644 138.551 8.47141 139.744 9.72137C140.937 10.9713 141.533 12.832 141.532 15.3034V29.5234H136.037V15.5667C136.037 13.2406 134.86 12.0775 132.505 12.0775C130.993 12.0775 129.764 12.6082 128.818 13.6694C127.873 14.7306 127.401 16.2062 127.401 18.096V29.5201H121.854Z" fill="#101010"/>
<path d="M154.796 30C151.801 30 149.287 29.0478 147.251 27.1435C145.216 25.2392 144.199 22.4263 144.199 18.705V18.6181C144.199 15.3032 145.18 12.6793 147.142 10.7464C149.104 8.81353 151.656 7.84798 154.796 7.84973C157.935 7.84973 160.494 8.80914 162.471 10.728C164.448 12.6468 165.437 15.2623 165.437 18.5746V18.6615C165.437 22.4123 164.419 25.2396 162.384 27.1435C160.349 29.0474 157.819 29.9996 154.796 30ZM154.796 26.3792C158.139 26.3792 159.811 24.0243 159.811 19.3146V17.7458C159.811 15.7708 159.36 14.2446 158.459 13.1671C157.557 12.0896 156.336 11.5518 154.796 11.5535C153.254 11.5535 152.04 12.0914 151.155 13.1671C150.269 14.2428 149.826 15.769 149.824 17.7458V19.3159C149.824 24.0256 151.481 26.3805 154.796 26.3805V26.3792Z" fill="#101010"/>
<path d="M19.376 28.9724C19.3763 29.1617 19.3242 29.3474 19.2255 29.5089C19.1267 29.6704 18.9851 29.8014 18.8165 29.8874C18.6478 29.9734 18.4586 30.011 18.2699 29.996C18.0812 29.981 17.9003 29.9141 17.7473 29.8026L1.28503 17.7281C1.15478 17.633 1.04872 17.5086 0.975418 17.365C0.902112 17.2213 0.863616 17.0625 0.863039 16.9012V1.48964C0.862712 1.30032 0.91482 1.11462 1.01359 0.953111C1.11235 0.791602 1.25392 0.660601 1.42258 0.574631C1.59125 0.488661 1.78043 0.451081 1.96915 0.466058C2.15787 0.481035 2.33876 0.547983 2.49175 0.65948L18.954 12.734C19.0845 12.8292 19.1908 12.9539 19.2641 13.0979C19.3374 13.242 19.3757 13.4012 19.376 13.5628V28.9724Z" fill="#101010"/>
<path d="M37.005 28.9723C37.0055 29.1616 36.9535 29.3473 36.8548 29.5089C36.7561 29.6704 36.6146 29.8015 36.446 29.8875C36.2773 29.9734 36.0881 30.011 35.8994 29.996C35.7107 29.981 35.5299 29.914 35.3769 29.8025L18.9147 17.728C18.7844 17.6329 18.6784 17.5085 18.6051 17.3649C18.5318 17.2212 18.4933 17.0624 18.4927 16.9011V1.48953C18.4924 1.30022 18.5445 1.11451 18.6432 0.953004C18.742 0.791495 18.8836 0.660494 19.0522 0.574524C19.2209 0.488554 19.4101 0.450974 19.5988 0.465951C19.7875 0.480928 19.9684 0.547876 20.1214 0.659373L36.5837 12.7339C36.7137 12.8291 36.8196 12.9535 36.8928 13.0971C36.9659 13.2407 37.0044 13.3995 37.005 13.5607V28.9723Z" fill="#101010"/>
<path d="M54.639 28.9723C54.6395 29.1616 54.5875 29.3473 54.4888 29.5089C54.3901 29.6704 54.2486 29.8015 54.0799 29.8875C53.9113 29.9734 53.7221 30.011 53.5334 29.996C53.3447 29.981 53.1639 29.914 53.0109 29.8025L36.546 17.728C36.4158 17.6329 36.3097 17.5085 36.2364 17.3649C36.1631 17.2212 36.1246 17.0624 36.124 16.9011V1.48953C36.1237 1.30022 36.1758 1.11451 36.2746 0.953004C36.3733 0.791495 36.5149 0.660494 36.6836 0.574524C36.8522 0.488554 37.0414 0.450974 37.2301 0.465951C37.4189 0.480928 37.5997 0.547876 37.7527 0.659373L54.215 12.7339C54.3458 12.829 54.4524 12.9536 54.526 13.0976C54.5997 13.2416 54.6384 13.401 54.639 13.5627V28.9723Z" fill="#101010"/>
</svg>
