<svg width="117" height="21" viewBox="0 0 117 21" fill="none" xmlns="http://www.w3.org/2000/svg">
<path d="M43.9158 20.5327V5.58736H47.0284C47.1877 5.92279 47.3116 6.27389 47.3982 6.63498C47.6448 7.37464 47.7688 8.20672 47.7704 9.13121V9.34706C48.0783 8.05258 48.6739 7.04078 49.5572 6.31167C50.4405 5.58255 51.4985 5.21784 52.7312 5.21753C55.2991 5.21753 56.6859 6.6556 56.8915 9.53174C57.2407 8.1557 57.8878 7.09257 58.8327 6.34237C59.7777 5.59217 60.8768 5.21722 62.1301 5.21753C63.5256 5.21753 64.6247 5.65915 65.4274 6.5424C66.23 7.42565 66.6307 8.74045 66.6294 10.4868V20.535H62.7157V10.6729C62.7157 9.78993 62.5565 9.15819 62.238 8.77766C61.9195 8.39713 61.3699 8.20703 60.5893 8.20734C59.5417 8.20734 58.7251 8.57716 58.1396 9.31682C57.5541 10.0565 57.2511 11.1043 57.2306 12.4601V20.5327H53.3169V10.6705C53.3169 9.7876 53.1577 9.15587 52.8392 8.77534C52.5207 8.39481 51.9711 8.2047 51.1905 8.20501C50.1634 8.20501 49.3519 8.57484 48.7561 9.3145C48.1604 10.0542 47.8523 11.1019 47.8318 12.4578V20.5327H43.9158Z" fill="white"/>
<path d="M76.0058 20.8718C73.8898 20.8718 72.1129 20.1989 70.6752 18.8533C69.2374 17.5076 68.5178 15.52 68.5162 12.8904V12.829C68.5162 10.4866 69.2095 8.63251 70.5961 7.2667C71.9827 5.90089 73.7853 5.21861 76.004 5.21985C78.2229 5.21985 80.0308 5.89779 81.4276 7.25368C82.8244 8.60956 83.5222 10.4586 83.521 12.8007V12.8621C83.521 15.5124 82.802 17.5103 81.3639 18.8556C79.9258 20.201 78.1398 20.873 76.0058 20.8718ZM76.0058 18.3132C78.3681 18.3132 79.5493 16.6492 79.5496 13.3212V12.2126C79.5496 10.8171 79.2313 9.73859 78.5946 8.97722C77.9579 8.21585 77.095 7.83579 76.0058 7.83703C74.9166 7.83703 74.059 8.2171 73.4328 8.97722C72.8067 9.73735 72.4935 10.8158 72.4932 12.2126V13.3221C72.4916 16.6501 73.6625 18.3141 76.0058 18.3141V18.3132Z" fill="white"/>
<path d="M85.4958 20.5327V5.58736H88.6127C88.7727 5.9227 88.8975 6.2738 88.9848 6.63498C89.2314 7.37464 89.3546 8.20672 89.3546 9.13121V9.43917C89.6421 8.12515 90.2481 7.09289 91.1726 6.34237C92.0971 5.59186 93.2373 5.21691 94.5932 5.21753C96.1128 5.21753 97.2941 5.65915 98.137 6.5424C98.98 7.42565 99.4011 8.74045 99.4005 10.4868V20.535H95.5175V10.6729C95.5175 9.02918 94.6856 8.20734 93.0218 8.20734C91.9531 8.20734 91.0847 8.58228 90.4167 9.33218C89.7487 10.0821 89.4148 11.1247 89.4151 12.4601V20.5327H85.4958Z" fill="white"/>
<path d="M108.773 20.8718C106.657 20.8718 104.88 20.199 103.442 18.8533C102.004 17.5077 101.285 15.52 101.285 12.8904V12.829C101.285 10.4866 101.978 8.63252 103.364 7.26671C104.751 5.9009 106.554 5.21861 108.773 5.21985C110.991 5.21985 112.799 5.89779 114.196 7.25368C115.593 8.60957 116.292 10.4578 116.292 12.7983V12.8597C116.292 15.5101 115.573 17.508 114.135 18.8533C112.697 20.1987 110.909 20.8715 108.773 20.8718ZM108.773 18.3132C111.135 18.3132 112.316 16.6492 112.317 13.3212V12.2127C112.317 10.8171 111.998 9.7386 111.361 8.97723C110.724 8.21586 109.861 7.83579 108.773 7.83704C107.683 7.83704 106.826 8.2171 106.2 8.97723C105.574 9.73736 105.261 10.8158 105.26 12.2127V13.3221C105.26 16.6501 106.431 18.3141 108.773 18.3141V18.3132Z" fill="white"/>
<path d="M13.0817 20.1457C13.082 20.2794 13.0452 20.4107 12.9754 20.5248C12.9056 20.6389 12.8055 20.7315 12.6864 20.7922C12.5672 20.853 12.4335 20.8795 12.3001 20.869C12.1668 20.8584 12.039 20.8111 11.9308 20.7323L0.298191 12.2001C0.206155 12.133 0.13121 12.0451 0.0794109 11.9436C0.0276115 11.8421 0.000409232 11.7298 1.07763e-06 11.6159V0.725649C-0.000229641 0.591876 0.0365913 0.460652 0.106381 0.346526C0.176172 0.2324 0.276204 0.139831 0.395389 0.0790825C0.514574 0.0183339 0.648254 -0.00822096 0.781609 0.00236194C0.914963 0.0129448 1.04278 0.0602521 1.15089 0.139039L12.7836 8.67117C12.8758 8.7385 12.9508 8.82662 13.0026 8.92837C13.0545 9.03013 13.0816 9.14267 13.0817 9.25685V20.1457Z" fill="white"/>
<path d="M25.5388 20.1456C25.5391 20.2793 25.5024 20.4106 25.4327 20.5247C25.3629 20.6389 25.2629 20.7315 25.1438 20.7923C25.0246 20.853 24.8909 20.8796 24.7576 20.869C24.6242 20.8584 24.4964 20.811 24.3884 20.7322L12.7557 12.2001C12.6637 12.1329 12.5887 12.045 12.5369 11.9435C12.4851 11.842 12.4579 11.7297 12.4575 11.6158V0.725558C12.4573 0.591784 12.4941 0.46056 12.5639 0.346434C12.6337 0.232308 12.7337 0.13974 12.8529 0.078991C12.9721 0.0182424 13.1058 -0.00831251 13.2391 0.00227039C13.3725 0.0128533 13.5003 0.0601605 13.6084 0.138947L25.2411 8.67108C25.333 8.73837 25.4078 8.8263 25.4595 8.92778C25.5112 9.02927 25.5384 9.14147 25.5388 9.25537V20.1456Z" fill="white"/>
<path d="M37.9994 20.1456C37.9997 20.2793 37.963 20.4106 37.8933 20.5247C37.8235 20.6389 37.7235 20.7315 37.6044 20.7923C37.4852 20.853 37.3515 20.8796 37.2182 20.869C37.0848 20.8584 36.957 20.811 36.849 20.7322L25.2144 12.2001C25.1224 12.1329 25.0475 12.045 24.9957 11.9435C24.9439 11.842 24.9167 11.7297 24.9163 11.6158V0.725558C24.916 0.591784 24.9529 0.46056 25.0226 0.346434C25.0924 0.232308 25.1925 0.13974 25.3116 0.078991C25.4308 0.0182424 25.5645 -0.00831251 25.6979 0.00227039C25.8312 0.0128533 25.959 0.0601605 26.0672 0.138947L37.6998 8.67108C37.7922 8.73832 37.8675 8.82638 37.9196 8.92813C37.9716 9.02989 37.999 9.14247 37.9994 9.25676V20.1456Z" fill="white"/>
</svg>
